<?xml version="1.0" encoding="UTF-8"?>
<svg version="1.1" xmlns="http://www.w3.org/2000/svg" width="1459" height="1536">
<path d="M0 0 C1.11306519 -0.00315216 2.22613037 -0.00630432 3.3729248 -0.009552 C5.17122742 -0.00651566 5.17122742 -0.00651566 7.00585938 -0.00341797 C8.88488953 -0.00485306 8.88488953 -0.00485306 10.80187988 -0.00631714 C13.46154208 -0.00699792 16.12111262 -0.00565568 18.78076172 -0.00097656 C22.77899277 0.00572806 26.77715867 -0.00088744 30.77539062 -0.00732422 C42.22594814 -0.01102892 53.66694933 0.02735368 65.10742188 0.54736328 C65.90474731 0.58243988 66.70207275 0.61751648 67.52355957 0.65365601 C75.7923323 1.09030941 83.92019847 2.42033704 92.08056641 3.76953125 C95.43269122 4.301168 98.79378077 4.71229661 102.16210938 5.12939453 C108.26699887 5.92368661 114.2392956 7.08758118 120.26367188 8.34423828 C124.95367774 9.28247198 129.67885426 9.95035087 134.41210938 10.62939453 C142.48464259 11.79020125 150.4034091 13.27440407 158.34960938 15.12939453 C158.34960938 15.78939453 158.34960938 16.44939453 158.34960938 17.12939453 C159.42726563 17.22865234 160.50492188 17.32791016 161.61523438 17.43017578 C167.26662851 18.14094155 172.63819626 19.74088074 178.09960938 21.31689453 C179.74255981 21.78554932 179.74255981 21.78554932 181.41870117 22.26367188 C184.73100691 23.21210511 188.0404031 24.17021158 191.34960938 25.12939453 C192.3127002 25.40509277 193.27579102 25.68079102 194.26806641 25.96484375 C203.29214717 28.55072905 212.11762582 31.20321219 220.72460938 34.99267578 C223.26000046 36.09059067 225.80426434 37.03153399 228.41210938 37.94189453 C234.52806143 40.11981351 240.47963906 42.66597916 246.44946289 45.21118164 C250.3914362 46.89090005 254.32890075 48.52047746 258.34960938 50.00439453 C264.82433419 52.5675386 270.89536416 56.01506535 277.02539062 59.29736328 C280.64900149 61.23629521 284.29155956 63.13026605 287.95507812 64.99267578 C319.74892605 81.19806771 349.79659351 101.44830867 377.34960938 124.12939453 C378.63173473 125.16377785 379.9143317 126.19757674 381.19726562 127.23095703 C390.36058837 134.64948414 399.09585967 142.38784827 407.63574219 150.51269531 C409.74909292 152.50622929 411.89677823 154.45930485 414.05078125 156.40869141 C422.62822579 164.17460374 431.01252395 172.19630509 438.51757812 181.01611328 C440.3984429 183.18572488 442.33860428 185.29387962 444.29223633 187.39794922 C449.02120383 192.49527162 453.56098585 197.68833965 457.91992188 203.10986328 C459.71125198 205.33606613 461.5169924 207.54427569 463.34179688 209.74267578 C493.04229103 245.64526553 520.20854524 287.0443672 538.34960938 330.12939453 C538.97225248 331.5262808 539.59742681 332.92204051 540.22460938 334.31689453 C540.93506908 335.92012059 541.64328511 337.52434225 542.34960938 339.12939453 C542.71957031 339.96728516 543.08953125 340.80517578 543.47070312 341.66845703 C547.22281537 350.40288226 550.29611702 359.35289723 553.38623047 368.33642578 C554.72553718 372.21926125 556.08265746 376.0958062 557.43847656 379.97290039 C558.79040546 383.84679466 560.13089842 387.72460652 561.47119141 391.60253906 C562.21036124 393.72883362 562.96180047 395.84994086 563.72070312 397.96923828 C571.97299454 421.58973142 577.9673982 446.86761863 580.99023438 471.71533203 C581.22256776 474.13417744 581.22256776 474.13417744 582.34960938 476.12939453 C583.01934976 480.28185777 583.50875191 484.45962233 584.02416992 488.63378906 C584.27676157 490.67093953 584.53822352 492.70678961 584.80078125 494.74267578 C587.62961258 517.07545746 588.69066794 539.18289004 588.59960938 561.69189453 C588.59717224 563.00956818 588.59473511 564.32724182 588.59222412 565.68484497 C588.55729181 583.89672751 588.29996221 602.00838966 586.62304688 620.15136719 C586.35570329 623.06302527 586.12909875 625.97531852 585.91210938 628.89111328 C585.07190607 639.55369337 583.41414527 649.9086313 581.28710938 660.38720703 C580.50587216 664.24609163 579.88384739 668.10254904 579.34960938 672.00439453 C578.49951028 677.78506839 577.04653291 683.30223705 575.47851562 688.92626953 C574.40535922 692.82831504 573.49270852 696.75916725 572.58886719 700.70336914 C570.40508999 710.21703443 567.78960286 719.47891229 564.75585938 728.75439453 C563.1596084 733.64558067 561.80628876 738.58574732 560.50195312 743.56298828 C559.1402491 747.77734683 557.43931433 751.78987834 555.7121582 755.8659668 C554.36763132 759.08623034 553.09333625 762.32509164 551.84179688 765.58251953 C545.89751191 781.04331627 539.52060759 796.19105729 532.34960938 811.12939453 C531.64433105 812.60569336 531.64433105 812.60569336 530.92480469 814.11181641 C505.59090369 866.83789065 471.00897132 917.19712622 429.16992188 958.27392578 C427.34191358 960.13723896 425.65875383 962.07333749 423.97460938 964.06689453 C420.54148555 968.06436748 416.7135963 971.49067946 412.76367188 974.96923828 C410.67397892 976.83914153 408.68625341 978.75244274 406.72460938 980.75439453 C403.10498461 984.42429186 399.26881158 987.78405221 395.34960938 991.12939453 C394.37894531 991.96599609 393.40828125 992.80259766 392.40820312 993.66455078 C385.47263465 999.61463349 378.38748987 1005.31202202 371.09033203 1010.81396484 C369.2687729 1012.19048106 367.45555118 1013.57753146 365.64257812 1014.96533203 C317.54948414 1051.61144464 264.27907747 1079.98308121 207.34960938 1100.12939453 C205.29740815 1100.86734802 203.24532267 1101.60562345 201.19335938 1102.34423828 C189.70365895 1106.44703134 178.18899803 1110.1745897 166.34960938 1113.12939453 C165.56457031 1113.32597656 164.77953125 1113.52255859 163.97070312 1113.72509766 C147.74575131 1117.72348119 131.30856872 1120.58074538 114.86230469 1123.48852539 C111.96035633 1124.01796759 109.07838849 1124.59466941 106.19335938 1125.20751953 C100.21057099 1126.42538201 94.16607606 1127.04411927 88.09960938 1127.69189453 C86.41158203 1127.88041992 86.41158203 1127.88041992 84.68945312 1128.07275391 C71.21728916 1129.54314437 57.84404785 1130.29040919 44.29492188 1130.29736328 C42.7805885 1130.30059275 41.2662554 1130.30395794 39.75192261 1130.30744934 C36.59372234 1130.31338911 33.4355492 1130.31529482 30.27734375 1130.31469727 C27.09336621 1130.31461639 23.90953373 1130.32150486 20.72558594 1130.33520508 C2.16645134 1130.4137284 -16.18031029 1130.20160516 -34.65039062 1128.12939453 C-35.45035461 1128.04251373 -36.2503186 1127.95563293 -37.07452393 1127.86611938 C-42.23541851 1127.29838727 -47.38146059 1126.64601316 -52.52539062 1125.94189453 C-53.67681549 1125.78624023 -53.67681549 1125.78624023 -54.85150146 1125.62744141 C-87.4090648 1121.18092812 -118.80398434 1113.21554522 -150.08789062 1103.26269531 C-152.34954572 1102.54321869 -154.61243199 1101.8275919 -156.87695312 1101.1171875 C-187.46888169 1091.49852965 -216.3198914 1077.72380389 -244.71289062 1062.94189453 C-245.99740112 1062.27383789 -245.99740112 1062.27383789 -247.30786133 1061.59228516 C-248.09249756 1061.17785156 -248.87713379 1060.76341797 -249.68554688 1060.33642578 C-250.35980713 1059.98040283 -251.03406738 1059.62437988 -251.72875977 1059.25756836 C-253.65039062 1058.12939453 -253.65039062 1058.12939453 -255.70141602 1056.484375 C-257.68615503 1054.81543875 -257.68615503 1054.81543875 -260.79882812 1055.24267578 C-265.41833151 1056.30619228 -269.8062291 1057.74913441 -274.27539062 1059.31689453 C-281.64067474 1061.84142801 -289.0255061 1064.16330523 -296.52539062 1066.25439453 C-303.67882426 1068.25120387 -310.69688122 1070.44803011 -317.72460938 1072.85205078 C-322.42406126 1074.41853474 -327.19364541 1075.73178115 -331.96289062 1077.06689453 C-338.58883801 1078.9233022 -345.13999897 1080.90108353 -351.65039062 1083.12939453 C-358.03738557 1085.31516613 -364.46031744 1087.25429926 -370.96289062 1089.06689453 C-378.01902147 1091.03489151 -384.97022114 1093.19386442 -391.90039062 1095.56689453 C-400.74360762 1098.5879368 -409.67355939 1101.16107714 -418.68212891 1103.64038086 C-429.43467503 1106.60264621 -440.03507446 1109.88896919 -450.58789062 1113.50439453 C-458.48812258 1116.17145899 -466.50707472 1118.37232315 -474.55639648 1120.54296875 C-480.50001074 1122.1654543 -486.25778544 1124.02937542 -492.02832031 1126.18530273 C-496.09489561 1127.64949702 -500.23475209 1128.79713265 -504.40039062 1129.94189453 C-513.38094742 1132.44859337 -522.29677864 1135.13290196 -531.18652344 1137.94506836 C-532.10401367 1138.23019287 -533.02150391 1138.51531738 -533.96679688 1138.80908203 C-534.77576416 1139.06415527 -535.58473145 1139.31922852 -536.41821289 1139.58203125 C-538.65039062 1140.12939453 -538.65039062 1140.12939453 -542.65039062 1140.12939453 C-541.15419118 1131.00257792 -538.30630188 1122.40201369 -535.46044922 1113.62744141 C-534.19862954 1109.73626028 -532.95141349 1105.84054913 -531.71289062 1101.94189453 C-531.46684082 1101.16813477 -531.22079102 1100.394375 -530.96728516 1099.59716797 C-528.96364989 1093.24178657 -527.11340412 1086.84681152 -525.27539062 1080.44189453 C-522.96085643 1072.39381698 -520.46922642 1064.43337059 -517.77539062 1056.50439453 C-514.70193094 1047.45600956 -511.86731932 1038.35335082 -509.15039062 1029.19189453 C-506.46460336 1020.14294732 -503.73466754 1011.11351454 -500.83789062 1002.12939453 C-500.51989502 1001.14310059 -500.20189941 1000.15680664 -499.87426758 999.140625 C-499.54257568 998.11211426 -499.21088379 997.08360352 -498.86914062 996.02392578 C-496.16260231 987.63091052 -493.49690852 979.22506349 -490.83789062 970.81689453 C-490.45599075 969.60993927 -490.45599075 969.60993927 -490.06637573 968.37860107 C-486.02762028 955.60452945 -482.09735127 942.79968383 -478.21047974 929.97869873 C-475.06528003 919.6150148 -471.77592307 909.31493942 -468.29711914 899.05737305 C-466.11943983 892.61675953 -464.10723226 886.14659471 -462.24414062 879.6081543 C-461.20920236 875.9781807 -460.06934012 872.4247001 -458.77539062 868.87939453 C-457.37600631 864.21478013 -457.768197 861.88640221 -459.93457031 857.57177734 C-460.74522949 856.21584473 -460.74522949 856.21584473 -461.57226562 854.83251953 C-462.1788501 853.80497559 -462.78543457 852.77743164 -463.41040039 851.71875 C-464.06709717 850.6167627 -464.72379395 849.51477539 -465.40039062 848.37939453 C-466.78643075 846.01633285 -468.16315842 843.64794 -469.53710938 841.27783203 C-469.8856749 840.6766153 -470.23424042 840.07539856 -470.59336853 839.45596313 C-483.9505883 816.33506959 -494.91567207 791.97455001 -504.65039062 767.12939453 C-505.10800781 765.97697266 -505.565625 764.82455078 -506.03710938 763.63720703 C-518.38631436 731.52185713 -527.34788147 697.94047029 -533.65039062 664.12939453 C-533.88902832 662.86264893 -534.12766602 661.59590332 -534.37353516 660.29077148 C-536.12351802 650.81881251 -537.47193427 641.34516273 -538.53076172 631.7722168 C-538.77582918 629.56294097 -539.03090324 627.35498156 -539.28710938 625.14697266 C-541.43297092 606.37973706 -541.81125172 587.75322738 -541.78076172 568.88476562 C-541.77506486 565.34162353 -541.77846094 561.79855643 -541.7841835 558.25541687 C-541.83525521 521.4861879 -541.83525521 521.4861879 -539.10986328 509.40185547 C-538.29890014 505.39099205 -538.1203688 501.33020585 -537.83789062 497.25439453 C-536.83818387 484.75643188 -534.58045855 472.53369208 -532.23779297 460.22802734 C-531.73191221 457.55943277 -531.24172215 454.88901914 -530.76367188 452.21533203 C-529.35784173 444.42960521 -527.61229773 436.79316829 -525.65039062 429.12939453 C-525.2854248 427.69345947 -525.2854248 427.69345947 -524.91308594 426.22851562 C-520.22621715 407.94474795 -514.58864472 390.03579101 -508.65039062 372.12939453 C-507.99039063 372.12939453 -507.33039063 372.12939453 -506.65039062 372.12939453 C-506.48796875 370.89576172 -506.48796875 370.89576172 -506.32226562 369.63720703 C-505.5457635 365.58314363 -504.30269374 361.87746386 -502.90039062 358.00439453 C-502.63379639 357.2602832 -502.36720215 356.51617188 -502.0925293 355.74951172 C-496.29222451 339.72321614 -496.29222451 339.72321614 -493.25585938 334.92626953 C-491.8288129 332.44022263 -490.81872049 330.11470595 -489.79101562 327.44970703 C-487.69841083 322.08318829 -485.1263228 317.07242551 -482.40039062 312.00439453 C-479.45030024 306.46781714 -476.52682044 300.93939475 -473.83691406 295.27148438 C-464.23833806 275.17882276 -451.33765145 256.16171636 -438.27539062 238.19189453 C-437.72012695 237.42611084 -437.16486328 236.66032715 -436.59277344 235.87133789 C-428.93998455 225.35809388 -420.97486458 215.12154274 -412.65039062 205.12939453 C-412.2264502 204.61908691 -411.80250977 204.1087793 -411.36572266 203.58300781 C-405.53694443 196.57867767 -399.5596768 189.75118841 -393.35351562 183.07861328 C-391.32015493 180.88589236 -389.3618829 178.6388328 -387.41210938 176.37158203 C-383.21911079 171.56209995 -378.73381191 167.06627052 -374.21289062 162.56689453 C-373.40529297 161.75542969 -372.59769531 160.94396484 -371.765625 160.10791016 C-367.44662593 155.7958716 -363.05353737 151.63912253 -358.42602539 147.65991211 C-356.01237656 145.579455 -353.67837047 143.41651744 -351.33789062 141.25439453 C-345.93560132 136.33379083 -340.3501015 131.69956687 -334.65039062 127.12939453 C-333.4951787 126.19352241 -332.34024429 125.25730764 -331.18554688 124.32080078 C-318.41259395 113.99315477 -305.42242424 104.09546331 -291.65039062 95.12939453 C-289.79550769 93.88045766 -287.94136276 92.63042413 -286.08789062 91.37939453 C-274.2258279 83.49726373 -262.4305647 75.71896627 -249.56445312 69.56689453 C-247.1809662 68.39112618 -245.03919439 67.16589529 -242.83789062 65.69189453 C-238.1431804 62.60971521 -233.00144426 60.39490719 -227.90307617 58.07104492 C-224.53490238 56.52757186 -221.25693467 54.94761984 -218.06054688 53.07080078 C-212.41930578 49.85923512 -206.41896064 47.62093707 -200.36132812 45.31689453 C-198.99406489 44.79365488 -197.62687968 44.27021134 -196.25976562 43.74658203 C-194.13654264 42.93487723 -192.01280759 42.12461769 -189.88769531 41.31787109 C-187.81475255 40.53013375 -185.74415662 39.73647288 -183.67382812 38.94189453 C-182.44583496 38.47396484 -181.2178418 38.00603516 -179.95263672 37.52392578 C-176.70497869 36.24562521 -176.70497869 36.24562521 -174.10498047 34.59057617 C-171.26297399 32.89877104 -168.50256363 31.94552531 -165.35351562 30.93798828 C-164.14695312 30.550625 -162.94039062 30.16326172 -161.69726562 29.76416016 C-160.44429687 29.3690625 -159.19132812 28.97396484 -157.90039062 28.56689453 C-156.04414062 27.96844727 -156.04414062 27.96844727 -154.15039062 27.35791016 C-148.34024882 25.50670008 -142.57867295 23.76558228 -136.60449219 22.53491211 C-133.50550264 21.89180596 -130.45796863 21.06929968 -127.40039062 20.25439453 C-126.75255615 20.08222412 -126.10472168 19.91005371 -125.43725586 19.73266602 C-121.48488875 18.66847411 -117.59913261 17.47347233 -113.71289062 16.19189453 C-97.07496337 11.01927088 -79.7536801 8.50842802 -62.49609375 6.4765625 C-59.66257269 6.13088071 -56.83663363 5.74826288 -54.00976562 5.35205078 C-42.41340432 3.73781012 -30.84765281 2.57090086 -19.16479492 1.77563477 C-18.12621338 1.70417236 -17.08763184 1.63270996 -16.01757812 1.55908203 C-15.10089355 1.49962402 -14.18420898 1.44016602 -13.23974609 1.37890625 C-10.68168668 1.18469109 -10.68168668 1.18469109 -8.34170532 0.62188721 C-5.50037248 0.10194221 -2.88741734 0.00235929 0 0 Z M-55.65039062 206.12939453 C-64.05420709 215.94981288 -70.42189735 226.34313002 -75.65039062 238.12939453 C-76.11960937 239.12455078 -76.58882812 240.11970703 -77.07226562 241.14501953 C-90.49554097 272.13455644 -89.18084761 310.12940165 -86.65039062 343.12939453 C-84.62414122 369.56882506 -85.06263154 395.52415661 -92.65039062 421.12939453 C-93.13572266 422.86189453 -93.13572266 422.86189453 -93.63085938 424.62939453 C-99.18224727 442.90688824 -108.13152318 459.9454329 -119.65039062 475.12939453 C-120.15828125 475.80099609 -120.66617188 476.47259766 -121.18945312 477.16455078 C-123.8856206 480.71738231 -126.60283379 484.25362087 -129.32617188 487.78564453 C-163.63254796 532.43934756 -191.66482747 584.2476867 -201.65039062 640.12939453 C-201.87726563 641.39396484 -202.10414063 642.65853516 -202.33789062 643.96142578 C-204.63964009 659.22650034 -204.78075031 675.51823935 -202.58789062 690.796875 C-202.68930161 694.58156466 -204.8042992 696.30565052 -207.41992188 698.83251953 C-210.22165075 701.7176624 -212.37860409 704.88480884 -214.65039062 708.19189453 C-223.76814423 721.11807153 -232.74033674 725.47862597 -247.58789062 730.56689453 C-261.72879593 735.41629001 -273.49727736 740.17277903 -281.38867188 753.46923828 C-286.81535359 764.91063225 -285.29480573 777.13200501 -282.65039062 789.06689453 C-279.0621459 805.72535635 -280.25307253 817.39886885 -286.83056641 833.15722656 C-290.63569956 842.31084944 -291.51289092 853.23204999 -288.02539062 862.69189453 C-283.6086356 871.87936056 -276.56146929 877.82629214 -267.11132812 881.50830078 C-255.41997284 885.5108395 -243.35997866 887.37744454 -231.15039062 889.00439453 C-224.48337249 889.9359294 -217.88332995 891.15921175 -211.27539062 892.44189453 C-210.27185547 892.63058105 -209.26832031 892.81926758 -208.234375 893.01367188 C-192.64462832 896.10612163 -178.47879383 901.67994901 -164.02539062 908.12939453 C-144.66023271 916.73173481 -126.53972102 924.72182227 -104.96289062 924.44189453 C-103.70927734 924.44511719 -102.45566406 924.44833984 -101.1640625 924.45166016 C-91.01107677 924.39291063 -82.77196459 923.17862296 -73.71289062 918.56689453 C-72.67865967 918.04289062 -72.67865967 918.04289062 -71.62353516 917.50830078 C-62.76125242 912.82931416 -52.43141321 905.02422805 -48.96118164 895.17285156 C-48.06891379 892.84681605 -47.21768144 891.07267412 -45.65039062 889.12939453 C-42.32334203 887.67301253 -38.93071167 887.4590691 -35.33789062 887.12939453 C-33.0813564 886.8535752 -30.82620381 886.56630599 -28.57226562 886.27001953 C-27.32123047 886.10566406 -26.07019531 885.94130859 -24.78125 885.77197266 C-20.19460681 885.10323774 -15.6884393 884.12142016 -11.16601562 883.11376953 C-10.3444397 882.93132187 -9.52286377 882.74887421 -8.6763916 882.56089783 C-7.84667847 882.37652664 -7.01696533 882.19215546 -6.16210938 882.00219727 C34.17339791 873.0412888 34.17339791 873.0412888 44.34960938 878.12939453 C46.4528471 878.40429905 48.55635295 878.57373074 50.66992188 878.75048828 C53.34960937 879.12939453 53.34960937 879.12939453 56.86669922 880.05883789 C61.78268462 881.30322306 66.7329496 881.9778499 71.75585938 882.63720703 C72.72116577 882.76755341 73.68647217 882.89789978 74.68103027 883.03219604 C77.73667339 883.44382313 80.79310658 883.84920556 83.84960938 884.25439453 C85.93299825 884.53392883 88.01633222 884.81387262 90.09960938 885.09423828 C95.18232005 885.77736112 100.26574836 886.45488826 105.34960938 887.12939453 C105.60572998 887.93473633 105.86185059 888.74007812 106.12573242 889.56982422 C106.64453979 891.16938965 106.64453979 891.16938965 107.17382812 892.80126953 C107.51244873 893.85411133 107.85106934 894.90695312 108.19995117 895.99169922 C113.46348783 910.35716389 124.20332634 920.241889 137.66210938 926.94189453 C152.23720163 933.10438138 173.518645 933.9625923 188.34960938 928.12939453 C189.74953125 927.63632813 189.74953125 927.63632813 191.17773438 927.13330078 C211.04523491 919.61797663 227.82337466 904.31158551 242.22460938 889.06689453 C245.67905374 885.58354268 249.42729227 882.62269464 253.34960938 879.69189453 C253.89987793 879.27351318 254.45014648 878.85513184 255.01708984 878.42407227 C268.01573066 868.94492551 282.96158981 862.26607718 297.44506836 855.42626953 C320.21720019 845.08819578 320.21720019 845.08819578 335.34960938 826.12939453 C337.70016936 819.07771457 337.55130455 810.56119485 335.10351562 803.57080078 C330.4441242 794.60712167 323.97025276 787.14816226 317.24804688 779.68408203 C316.44983521 778.78387329 316.44983521 778.78387329 315.63549805 777.86547852 C314.60665767 776.70777773 313.56595003 775.56046042 312.51098633 774.42651367 C305.13760167 766.13222541 303.53930058 755.98936385 301.53710938 745.37939453 C298.86212004 732.16427696 295.86012479 718.59092332 284.34960938 710.12939453 C279.2177095 706.55844642 279.2177095 706.55844642 273.34960938 705.12939453 C273.60653564 704.32272339 273.60653564 704.32272339 273.86865234 703.49975586 C274.66383433 700.98346931 275.44419949 698.46279996 276.22460938 695.94189453 C276.62873047 694.67442383 276.62873047 694.67442383 277.04101562 693.38134766 C292.04175273 644.53748415 273.09527666 588.41794635 250.34960938 545.12939453 C236.88951057 520.3208349 220.72059778 496.89881053 202.78710938 475.12939453 C175.16044134 441.53027977 158.35368323 404.60001006 158.15037918 360.67394066 C158.1383348 358.29323677 158.11882128 355.91269457 158.09725952 353.53205872 C158.03651445 346.77102317 157.98203854 340.01000809 157.94824219 333.2487793 C157.78606577 302.50802387 156.30579359 272.21774325 145.34960938 243.12939453 C144.90875 241.95892578 144.46789062 240.78845703 144.01367188 239.58251953 C134.02265134 214.74296572 115.69000243 194.48191906 91.34960938 183.12939453 C82.02050228 179.18045558 72.26371316 176.18858253 62.34960938 174.12939453 C61.44339844 173.92443359 60.5371875 173.71947266 59.60351562 173.50830078 C21.73171419 166.21559001 -28.56662981 176.81575289 -55.65039062 206.12939453 Z " fill="#2AAC75" transform="translate(700.650390625,198.87060546875)"/>
<path d="M0 0 C1.85044922 0.40025391 1.85044922 0.40025391 3.73828125 0.80859375 C31.27702479 7.35158984 53.9843304 23.51750902 69.19140625 47.37890625 C85.87643776 74.64022059 91.22618156 108.8077054 91.33552551 140.27322578 C91.34405997 142.65283328 91.36477021 145.03209923 91.38806152 147.41160583 C91.44350686 153.31257677 91.47941795 159.21363183 91.51568604 165.11474609 C91.54731032 170.13471112 91.586767 175.15450507 91.63594055 180.17432976 C91.65554317 182.48315442 91.66422724 184.79183422 91.67224121 187.10072327 C92.0037744 233.54398239 112.32091455 270.64628468 141.375 305.75 C185.0734399 358.82739313 221.09763216 429.04746271 214.77294922 499.53027344 C213.47192167 509.92472636 210.12164744 520.03046985 207 530 C207.9075 530.27457031 208.815 530.54914062 209.75 530.83203125 C218.66487132 534.03581313 225.41004579 541.31946596 229.45703125 549.7265625 C232.95168298 557.584155 234.31202073 565.93313857 235.90673828 574.32885742 C238.08412938 585.92656887 238.08412938 585.92656887 244 596 C244.68255859 596.850177 244.68255859 596.850177 245.37890625 597.7175293 C246.80203835 599.42808116 248.2673112 601.09093276 249.75 602.75 C255.15942286 608.95082151 260.32836408 615.21182699 265 622 C265.54914062 622.7940625 266.09828125 623.588125 266.6640625 624.40625 C271.08070223 631.8084395 270.92702479 639.68252754 270 648 C267.22856871 658.62873382 259.80585165 664.26149421 251 670 C247.53932478 672.01927569 244.00625606 673.86733395 240.4375 675.6875 C239.45587891 676.19587402 238.47425781 676.70424805 237.46289062 677.22802734 C231.10993503 680.49179307 224.68845414 683.58300446 218.22143555 686.61328125 C207.48841129 691.64995319 197.4986087 696.88785766 188 704 C187.04609375 704.71414063 186.0921875 705.42828125 185.109375 706.1640625 C179.24861092 710.76894856 174.04719787 715.8861196 168.83764648 721.19360352 C163.87253599 726.21762085 158.58331786 730.67252871 153 735 C152.07960938 735.74894531 151.15921875 736.49789062 150.2109375 737.26953125 C135.80608881 748.66528082 119.29965612 756.45316697 100.75 756.25 C99.82759521 756.24105713 98.90519043 756.23211426 97.95483398 756.22290039 C80.44854244 755.92691141 65.79096719 751.63525107 53 739 C46.09776277 731.11172888 41.46059601 722.19351041 39 712 C37.70900391 711.82871582 36.41800781 711.65743164 35.08789062 711.48095703 C30.27151318 710.84070579 25.45595964 710.19443034 20.640625 709.54638672 C18.56141593 709.26741324 16.48199061 708.99004636 14.40234375 708.71435547 C11.40305414 708.31646121 8.40460481 707.91268362 5.40625 707.5078125 C4.48509399 707.3868924 3.56393799 707.26597229 2.61486816 707.14138794 C-2.71345903 706.41521348 -7.80141626 705.37380316 -13 704 C-14.61967 703.77097961 -16.24490892 703.57382434 -17.875 703.4375 C-20.31086631 703.22956019 -21.80228469 703.09885766 -24 702 C-40.97594817 700.39859207 -57.13041576 703.22703905 -73.625 706.875 C-76.87759579 707.57188089 -80.13157417 708.26184689 -83.38623047 708.94903564 C-85.46105679 709.38873527 -87.53467519 709.83418052 -89.60693359 710.28582764 C-95.17348281 711.48351053 -100.62675692 712.3624281 -106.2890625 712.9453125 C-111.03139325 713.49910264 -111.03139325 713.49910264 -114.546875 716.6875 C-115.14242187 718.3271875 -115.14242187 718.3271875 -115.75 720 C-121.87031537 733.77450629 -133.84307417 741.49565982 -147.5 746.9375 C-177.9752865 756.18892626 -206.29774321 743.70893458 -233.6171875 731.65625 C-250.38289103 724.24640241 -250.38289103 724.24640241 -268 719.3125 C-268.94294922 719.11027832 -269.88589844 718.90805664 -270.85742188 718.69970703 C-272.72656709 718.30131755 -274.59697681 717.90880303 -276.46875 717.52294922 C-278.63947317 717.07448384 -280.80450955 716.60740629 -282.96875 716.12890625 C-290.26536141 714.571112 -297.54100696 713.51063937 -304.9375 712.5625 C-322.07223766 710.32753422 -339.97547134 707.53134218 -351.25 693.125 C-356.11339419 684.44036751 -357.83829444 675.87988699 -356 666 C-354.69546401 661.77660025 -353.10948924 657.67787157 -351.5 653.5625 C-345.52105259 638.12234844 -346.07520849 627.30724339 -349.55737305 611.38964844 C-352.3203359 598.43629506 -352.50730081 586.29357013 -345.5625 574.57421875 C-337.95619303 563.69500565 -325.87929819 559.47018173 -313.8125 555.375 C-295.7273678 549.18955295 -286.2363776 541.47057579 -275.36181641 525.73461914 C-272.20173385 521.16840935 -272.20173385 521.16840935 -270.34619141 519.61938477 C-268.7714654 518.06035951 -268.7714654 518.06035951 -268.91699219 515.73583984 C-269.04235352 514.86137207 -269.16771484 513.9869043 -269.296875 513.0859375 C-277.9486631 441.10589718 -238.2451424 369.47716661 -196.5 314 C-193.9971505 310.66879399 -191.49772664 307.33504813 -189 304 C-188.45279297 303.27312988 -187.90558594 302.54625977 -187.34179688 301.79736328 C-175.69176624 286.23150761 -166.42668438 269.56156717 -160.62451172 250.95361328 C-160.19189693 249.60029681 -159.73330803 248.25511378 -159.25439453 246.91748047 C-157.12088322 240.90802331 -155.91661287 234.90800884 -154.875 228.625 C-154.70613281 227.66078125 -154.53726563 226.6965625 -154.36328125 225.703125 C-152.62951644 215.51896318 -151.80542624 205.45268534 -151.8125 195.125 C-151.8115332 193.58585937 -151.8115332 193.58585937 -151.81054688 192.015625 C-151.8635666 183.9759063 -152.37206065 176.01276771 -153 168 C-156.53734886 121.42905847 -155.15849949 71.49471428 -124 34 C-123.21625 32.96875 -122.4325 31.9375 -121.625 30.875 C-92.85825496 -0.63143504 -39.90745773 -9.39716894 0 0 Z M-31.7890625 111.94921875 C-39.82624806 122.10904562 -43.37085819 132.91888908 -43.25 145.75 C-43.25773437 146.58660156 -43.26546875 147.42320312 -43.2734375 148.28515625 C-43.27085937 149.09339844 -43.26828125 149.90164063 -43.265625 150.734375 C-43.26336914 151.45850586 -43.26111328 152.18263672 -43.25878906 152.92871094 C-42.95468336 155.36270414 -42.3198112 156.93533937 -41 159 C-38.05770666 160.50629533 -38.05770666 160.50629533 -34.625 161.625 C-27.33881579 164.20723684 -27.33881579 164.20723684 -24 166 C-24.15855469 165.30261719 -24.31710937 164.60523438 -24.48046875 163.88671875 C-26.48029766 152.77488742 -24.50410441 144.30738794 -19.125 134.625 C-16.12051929 130.91358265 -13.51684476 128.37024658 -8.63671875 127.65234375 C-2.45151343 127.43647164 2.86413256 128.2043446 7.65625 132.4765625 C14.02891767 139.31780867 15.64367768 146.24105671 15.41796875 155.484375 C14.33523465 164.59148421 10.85964064 172.96843123 5 180 C7.07772471 180.86772029 9.16243177 181.71873619 11.25 182.5625 C12.99023438 183.27599609 12.99023438 183.27599609 14.765625 184.00390625 C18.50382731 185.19420743 18.50382731 185.19420743 22 184 C30.16570514 176.99017093 34.31806561 164.53739021 35.40625 154.10546875 C35.43574326 150.70268408 35.28891182 147.38932369 35 144 C34.94779297 142.78957031 34.94779297 142.78957031 34.89453125 141.5546875 C34.01444196 128.28198959 27.72767275 115.83691523 18.15234375 106.7578125 C2.0112261 93.57541152 -18.21519484 97.16022319 -31.7890625 111.94921875 Z M-128.53125 116.4921875 C-136.41619143 129.95530557 -137.32184055 148.00368944 -134.3515625 163.08203125 C-133.44760875 166.21496496 -132.37359421 169.04396099 -131 172 C-130.45601562 173.19625 -129.91203125 174.3925 -129.3515625 175.625 C-126.7007332 181.95775067 -126.7007332 181.95775067 -121.578125 185.94921875 C-118.75407509 186.00484398 -116.82629396 185.54712461 -114.1875 184.5625 C-113.39730469 184.27503906 -112.60710937 183.98757813 -111.79296875 183.69140625 C-111.20128906 183.46324219 -110.60960937 183.23507812 -110 183 C-110.54269531 182.0821875 -111.08539062 181.164375 -111.64453125 180.21875 C-113.81941623 176.50990284 -115.92494788 172.7654711 -118 169 C-118.39574219 168.29101562 -118.79148437 167.58203125 -119.19921875 166.8515625 C-122.55007581 159.62678776 -122.28777533 149.39164409 -120.0859375 141.8828125 C-117.7540593 136.81285796 -115.24843739 133.30931245 -110 131 C-104.77104039 130.34638005 -101.40450343 131.12749776 -97 134 C-90.43491988 140.56508012 -89.71691585 147.59755065 -89.375 156.4375 C-89.31699219 157.67790039 -89.31699219 157.67790039 -89.2578125 158.94335938 C-89.16446908 160.96191073 -89.08119039 162.98092331 -89 165 C-88.31292969 164.65066406 -87.62585938 164.30132813 -86.91796875 163.94140625 C-85.56638672 163.25884766 -85.56638672 163.25884766 -84.1875 162.5625 C-83.29417969 162.11003906 -82.40085937 161.65757812 -81.48046875 161.19140625 C-79 160 -79 160 -76 159 C-75.28550414 134.24009957 -75.28550414 134.24009957 -86.88671875 112.89453125 C-88.84233566 111.0925974 -90.82201994 109.52375792 -93 108 C-93.61617187 107.566875 -94.23234375 107.13375 -94.8671875 106.6875 C-107.60642967 99.07567065 -120.59181538 105.44438932 -128.53125 116.4921875 Z M-2 136 C-2.4498953 140.57393555 -2.53136727 142.95852016 -0.4375 147.0625 C1.9622988 149.39127038 1.9622988 149.39127038 5.6875 148.9375 C6.780625 148.628125 7.87375 148.31875 9 148 C10.55024464 144.89951072 10.28992015 142.42105782 10 139 C8.54366876 135.97061306 8.54366876 135.97061306 6 134 C1.4815961 133.35537523 1.4815961 133.35537523 -2 136 Z M-105 139 C-105.44581671 142.41792813 -105.15564686 144.58799361 -103.9375 147.8125 C-102.0639118 150.33566167 -102.0639118 150.33566167 -98.4375 150.9375 C-97.303125 150.958125 -96.16875 150.97875 -95 151 C-92.66847692 149.08274006 -92.66847692 149.08274006 -92.625 145.75 C-93.06577275 141.34227248 -94.04211828 139.27765271 -97 136 C-100.72461771 135.18240099 -102.9300248 135.73161811 -105 139 Z M-97.58813477 181.87231445 C-101.62038734 185.07117985 -105.74545197 187.76558034 -110.25 190.25 C-124.03510868 197.62063128 -124.03510868 197.62063128 -133 210 C-134.45438603 216.56746191 -132.4328686 222.38917852 -129 228 C-124.69811853 234.03328887 -118.25574789 237.46836971 -112.04467773 241.23803711 C-106.30141821 244.73915145 -101.16545153 248.69410556 -96 253 C-80.67019204 265.47981471 -68.85964711 270.41527563 -49 269 C-37.46627899 267.13443638 -27.49347494 260.6372606 -17.70629883 254.58056641 C-11.33991887 250.67402515 -4.78526898 247.37027265 1.9375 244.125 C19.16168062 235.6912076 19.16168062 235.6912076 31 221 C31.37382813 220.33097656 31.74765625 219.66195312 32.1328125 218.97265625 C34.15765558 214.36659428 33.29101805 209.90368762 31.8125 205.3125 C27.61174432 197.63525687 20.8706016 193.33728734 12.66796875 190.73828125 C10.86332153 190.1498645 10.86332153 190.1498645 9.0222168 189.54956055 C8.3953598 189.34793304 7.76850281 189.14630554 7.12265015 188.93856812 C-6.53440423 184.52017903 -18.94616899 179.10969356 -31.0859375 171.4140625 C-55.49478509 156.12804007 -77.10504127 165.32080332 -97.58813477 181.87231445 Z M33 233 C32.62447998 233.43497803 32.24895996 233.86995605 31.86206055 234.31811523 C26.86125491 239.74036595 21.37694956 242.81548192 14.8125 246.0625 C13.78237793 246.58706787 12.75225586 247.11163574 11.69091797 247.65209961 C6.69894491 250.18679585 1.67262942 252.64076426 -3.375 255.0625 C-8.37192273 257.51354531 -12.92817085 260.49897619 -17.5625 263.5625 C-29.94556486 271.73649578 -42.28638067 277.61935576 -57.375 277.375 C-58.2932959 277.36412354 -59.2115918 277.35324707 -60.15771484 277.34204102 C-74.90374928 276.99689889 -85.22531523 272.68926163 -95.875 262.375 C-101.71420991 256.84311692 -115.81836675 244 -124 244 C-124.18006592 245.02432129 -124.18006592 245.02432129 -124.36376953 246.06933594 C-127.0317203 261.05302935 -130.18322775 275.56083963 -135 290 C-135.29245605 290.89219238 -135.58491211 291.78438477 -135.88623047 292.70361328 C-144.8581466 319.94233167 -156.61431989 346.22306574 -168.88671875 372.12109375 C-187.50937209 411.52440443 -197.90406342 451.2957446 -199 495 C-213.80746015 470.82305515 -217.93175967 443.87927044 -212 416 C-211.8546582 415.31083496 -211.70931641 414.62166992 -211.55957031 413.91162109 C-207.45103376 395.07057772 -199.33136926 377.99720406 -190.36669922 361.01831055 C-189.91311035 360.14343994 -189.45952148 359.26856934 -188.9921875 358.3671875 C-188.58339355 357.59487793 -188.17459961 356.82256836 -187.75341797 356.02685547 C-186.70239794 353.84787857 -186.70239794 353.84787857 -188 351 C-192.15630132 356.33122114 -195.86965363 361.77182481 -199.25 367.625 C-199.71672119 368.43259766 -200.18344238 369.24019531 -200.66430664 370.07226562 C-209.92090717 386.43001227 -217.70108447 403.84327105 -221.6875 422.25 C-221.89955078 423.19101562 -222.11160156 424.13203125 -222.33007812 425.1015625 C-228.05569242 450.89391964 -225.72586665 476.77486644 -211.86328125 499.67578125 C-202.03390495 514.41102221 -189.97827191 525.16155302 -175.25 534.8125 C-154.1501971 548.64706734 -126.5015332 567.59391313 -118.40625 592.78515625 C-116.83078254 601.37448363 -117.04573153 609.39024361 -121.53125 617.015625 C-125.9697506 623.01232261 -133.20096594 624.72559003 -140 627 C-137.93655207 631.34126452 -135.22442658 635.02155711 -132.375 638.875 C-131.87871094 639.56980469 -131.38242187 640.26460937 -130.87109375 640.98046875 C-124.93164654 649.00552338 -117.45862661 653.6019165 -108.6875 658.125 C-107.84719238 658.56021973 -107.00688477 658.99543945 -106.14111328 659.44384766 C-95.45193564 664.900965 -84.78593139 667.99845224 -73.10668945 670.52563477 C-71.71323837 670.83939945 -70.32568461 671.18074185 -68.94604492 671.55053711 C-62.17119342 673.29104407 -55.53044485 673.34553014 -48.5625 673.3125 C-47.32056885 673.30686035 -46.0786377 673.3012207 -44.79907227 673.29541016 C-13.40315664 672.88362034 16.70944278 661.52690793 41.5 642.375 C42.07588867 641.9318042 42.65177734 641.4886084 43.24511719 641.03198242 C56.57356431 630.43230174 57.38205876 614.72777341 59.2890625 598.75 C60.0136095 592.21518154 60.5405743 585.66836313 61.07104492 579.11572266 C64.56972646 536.02410693 64.56972646 536.02410693 79.69140625 519.9296875 C82.33951651 517.71620786 85.06148672 516.27037831 88.125 514.6875 C94.1431291 511.44755125 96.13165192 507.97312365 98.78515625 501.8046875 C101.6403504 495.21295309 106.58039857 491.06541522 113 488 C131.49023466 481.69651091 149.63622691 488.43592468 166.37719727 496.4855957 C172.57897255 499.60678428 177.99553701 503.14627385 183 508 C183.90105469 508.82564453 183.90105469 508.82564453 184.8203125 509.66796875 C189.41983675 514.34526274 190.69901322 519.68907292 192 526 C192.99 526 193.98 526 195 526 C195.7657517 518.1191388 196.32619271 511.76500367 191.625 505.0625 C180.71789142 492.22392427 165.27347506 484.53579426 150 478 C150.28875 476.7625 150.5775 475.525 150.875 474.25 C151.25406702 472.50087645 151.62876946 470.7508035 152 469 C152.19078125 468.14148438 152.3815625 467.28296875 152.578125 466.3984375 C153.82960113 460.05166569 154.18115193 453.88586693 154.1875 447.4375 C154.1887085 446.28725342 154.1887085 446.28725342 154.18994141 445.11376953 C154.09503877 435.15742887 153.0319116 425.84059007 150.3125 416.25 C149.90994995 414.81394409 149.90994995 414.81394409 149.49926758 413.34887695 C142.80504714 390.04531918 131.08508538 369.49339334 116.25 350.4375 C115.59668701 349.59795776 115.59668701 349.59795776 114.93017578 348.74145508 C111.86164145 344.88574468 108.53312663 341.43498423 105 338 C104.34 338.33 103.68 338.66 103 339 C103.43231934 339.63276855 103.86463867 340.26553711 104.31005859 340.91748047 C118.90024322 362.34354443 132.81876552 383.48835952 139 409 C139.17805176 409.69931641 139.35610352 410.39863281 139.53955078 411.11914062 C141.29232554 418.70666605 141.39396359 426.24237044 141.375 434 C141.37578552 434.68198456 141.37657104 435.36396912 141.37738037 436.06661987 C141.35883001 449.52727853 139.25522576 461.23432273 135 474 C126.09 474.99 126.09 474.99 117 476 C117.061875 474.246875 117.12375 472.49375 117.1875 470.6875 C117.17766952 461.62379556 115.66052833 452.88987964 114 444 C113.79914795 442.89978516 113.79914795 442.89978516 113.59423828 441.77734375 C107.99761801 411.87443207 95.00196776 384.07757479 81.77758789 356.90136719 C43.08443119 277.24677471 43.08443119 277.24677471 35.71875 237.05078125 C35.4815625 236.04402344 35.244375 235.03726563 35 234 C34.34 233.67 33.68 233.34 33 233 Z M-266.57177734 532.93530273 C-268.07434326 534.91797119 -269.54251026 536.92149903 -271 538.9375 C-281.02225043 552.49052774 -288.45106641 559.18916827 -304.75 564.4375 C-323.33918725 570.03027128 -323.33918725 570.03027128 -337 583 C-341.14200221 593.31302577 -338.96955417 603.9941814 -337 614.5625 C-334.33047387 628.96447154 -334.22446217 640.23934638 -339.53515625 654.0078125 C-343.34106823 663.97916662 -346.89057517 673.95549621 -342.5 684.4375 C-337.16115055 693.14055596 -328.03288668 696.06990333 -318.55859375 698.43847656 C-311.40830609 700.00771908 -304.13163082 700.92818023 -296.890625 701.97265625 C-269.66787044 705.9384498 -246.00401847 713.53012993 -220.81982422 724.36865234 C-213.91522269 727.33719461 -206.9902937 730.23860031 -200 733 C-199.32275879 733.27134766 -198.64551758 733.54269531 -197.94775391 733.82226562 C-182.6803409 739.69275749 -161.00159135 740.11549829 -145.9206543 733.62304688 C-133.61367779 727.68280252 -127.02387664 719.28549474 -121.98046875 706.83203125 C-117.40351591 693.61174913 -120.95810328 681.38838404 -126.76171875 669.19921875 C-130.92614116 660.87576966 -136.03524861 653.36227835 -141.58007812 645.91015625 C-150.51569476 633.88947802 -159.0311831 621.68222956 -167 609 C-167.51030762 608.19191895 -168.02061523 607.38383789 -168.54638672 606.55126953 C-177.88036764 591.74574249 -186.82408454 576.72481312 -195.06640625 561.28125 C-208.67201304 534.55118877 -208.67201304 534.55118877 -232.84765625 518.4296875 C-247.79178101 515.44628691 -257.42211962 521.66948466 -266.57177734 532.93530273 Z M86.8359375 529.05078125 C72.73008781 544.02699188 72.39833457 568.12383502 71.5625 587.5 C70.67387825 607.96368936 65.99207337 628.34684451 60.07543945 647.89746094 C57.95626587 654.96835888 56.09966185 662.10454907 54.25 669.25 C53.94408936 670.42933105 53.63817871 671.60866211 53.32299805 672.82373047 C51.1702174 681.1871292 49.79845274 688.61329894 49.75 697.25 C49.729375 698.15363281 49.70875 699.05726563 49.6875 699.98828125 C49.62260374 711.26400696 53.72156267 722.01777102 61.2265625 730.5234375 C71.16077266 740.01612721 83.11701529 744.42402555 96.75 744.25 C97.53858398 744.24178223 98.32716797 744.23356445 99.13964844 744.22509766 C126.64050056 743.70292958 145.06379812 728.29237214 163.375 709.5 C182.19049562 690.54952952 205.72400474 678.62657666 229.83837891 667.83105469 C246.97003185 660.20381105 246.97003185 660.20381105 258.375 646 C260.0625169 637.89991886 258.23920343 632.87578117 254 626 C250.3361191 620.81917293 246.16468136 616.1437133 241.81738281 611.53637695 C230.05842623 599.01113765 226.31263921 586.67920643 223.01171875 570.12109375 C221.01781358 560.19555864 218.91925838 552.04871255 211.625 544.5625 C204.13995517 540.10711617 196.69063861 538.58679756 188 540 C184.68760735 542.20505208 182.20031594 544.75097983 179.6875 547.8125 C170.03516558 558.94980895 158.32299953 565.51312745 144 569 C143.39414062 569.17917969 142.78828125 569.35835937 142.1640625 569.54296875 C132.57581149 571.56792429 123.9416316 570.50940088 115.45703125 565.63671875 C101.7843361 556.52883438 98.24771185 540.0465799 95 525 C90.98165034 525 89.73524942 526.42672047 86.8359375 529.05078125 Z " fill="#030302" transform="translate(767,374)"/>
<path d="M0 0 C0.66 0.33 1.32 0.66 2 1 C2.37781659 2.62784974 2.74015837 4.26044144 3.03540039 5.90527344 C10.38760996 46.49197008 31.31278773 87.06361708 49 124 C66.90159519 161.55047183 84.44150517 200.61550332 84 243 C92.91 242.01 92.91 242.01 102 241 C102.61875 239.081875 103.2375 237.16375 103.875 235.1875 C104.22304688 234.10855469 104.57109375 233.02960938 104.9296875 231.91796875 C107.78839945 221.97022868 108.38890505 212.25820768 108.375 201.9375 C108.37445618 201.25468964 108.37391235 200.57187927 108.37335205 199.86837769 C108.33298027 188.82281954 107.4378159 178.54687966 104 168 C103.79632812 167.34644531 103.59265625 166.69289063 103.3828125 166.01953125 C97.64674441 147.99694695 87.73595603 132.10378295 77.1015625 116.609375 C74.52168007 112.83674403 72.19796727 109.00614723 70 105 C89.50214659 113.11112006 103.97542866 146.91756652 111.5390625 165.18359375 C113.83174841 170.98907576 115.43668854 176.96489065 117 183 C117.43119141 184.45019531 117.43119141 184.45019531 117.87109375 185.9296875 C122.98264449 203.19645698 122.0879125 221.652848 118 239 C117.65076064 240.9972839 117.31218049 242.99658929 117 245 C118.06476563 245.47308594 119.12953125 245.94617188 120.2265625 246.43359375 C132.99961998 252.21128279 146.22291014 258.67973848 156 269 C156.8971875 269.94359375 156.8971875 269.94359375 157.8125 270.90625 C163.25884116 277.66374736 162.58780029 284.73814033 162 293 C161.01 293 160.02 293 159 293 C158.88785156 292.32195312 158.77570313 291.64390625 158.66015625 290.9453125 C156.45270327 280.52844288 150.60335738 274.16180219 141.875 268.3125 C124.18456527 257.8702295 105.08394379 250.09732152 84.25 253.44140625 C77.29224969 255.36203524 71.16570873 259.70661286 67.20703125 265.7265625 C65.7201989 268.4505862 64.35787451 271.21018509 63 274 C60.86290276 278.24927207 59.12270416 279.78031573 54.8125 281.75 C43.99744249 287.3926387 38.3536409 296.83445297 34 308 C33.22632378 310.57218727 32.52872225 313.07903056 31.921875 315.6875 C31.75236328 316.4148938 31.58285156 317.1422876 31.40820312 317.89172363 C29.60207828 326.12151071 28.88954101 334.42206517 28.21777344 342.80764771 C27.84509356 347.41512209 27.42365251 352.0180655 27 356.62109375 C26.91733887 357.52133774 26.83467773 358.42158173 26.74951172 359.34910583 C26.05102608 366.79054935 25.15609382 374.17634504 24 381.5625 C23.78730469 382.99335937 23.78730469 382.99335937 23.5703125 384.453125 C21.10753469 399.25139515 13.72833232 406.00716719 1.8125 414.5625 C-12.41523246 424.29304557 -27.98747576 431.28793707 -44.625 435.75 C-45.36395508 435.94875732 -46.10291016 436.14751465 -46.86425781 436.35229492 C-58.13463015 439.22154183 -69.25884716 440.36780356 -80.875 440.3125 C-82.10516846 440.30758545 -83.33533691 440.3026709 -84.6027832 440.29760742 C-93.46951588 440.18321689 -101.43987939 439.42193561 -110 437 C-111.33419434 436.66620081 -112.6688541 436.33425788 -114.00390625 436.00390625 C-132.01327843 431.33821171 -152.49010452 423.11785388 -164 408 C-164.80050781 406.97519531 -165.60101562 405.95039062 -166.42578125 404.89453125 C-173 396.36688126 -173 396.36688126 -173 394 C-172.11957031 393.69707031 -171.23914063 393.39414062 -170.33203125 393.08203125 C-161.58805109 390.14226807 -161.58805109 390.14226807 -155 384 C-154.61328125 383.47148438 -154.2265625 382.94296875 -153.828125 382.3984375 C-149.91809241 376.1048919 -150.11923425 369.16304182 -151 362 C-155.52942026 344.98858291 -169.74309618 330.80490603 -183.28173828 320.33398438 C-185.29181048 318.77345092 -187.28412 317.19136798 -189.27734375 315.609375 C-196.80307788 309.66435592 -204.34465925 303.94510021 -212.39453125 298.7265625 C-216.44761842 296.04070863 -220.23812609 293.07596833 -224 290 C-224.66515625 289.47019531 -225.3303125 288.94039062 -226.015625 288.39453125 C-242.7205102 274.55052206 -255.18356963 252.8213608 -257.80078125 231.14355469 C-261.17103948 194.88023693 -248.10635045 161.50292945 -230.0625 130.6875 C-229.51907959 129.75647461 -228.97565918 128.82544922 -228.41577148 127.86621094 C-225.94096304 123.75578646 -224.02548943 120.72555247 -220 118 C-220.60608201 121.92290685 -221.81736169 124.9312361 -223.66015625 128.4375 C-224.20293213 129.48679687 -224.74570801 130.53609375 -225.30493164 131.6171875 C-225.8849292 132.73351562 -226.46492676 133.84984375 -227.0625 135 C-243.03364242 166.42179575 -254.05416582 202.73320494 -244 238 C-241.05605453 246.62443517 -236.94542126 254.37070687 -232 262 C-231.98541748 261.41847168 -231.97083496 260.83694336 -231.95581055 260.23779297 C-230.641077 212.74943132 -216.99882946 171.44894585 -196.96704102 128.71289062 C-187.77082041 109.03738148 -179.36261199 89.08662486 -171.96875 68.6640625 C-171.31210969 66.85830164 -170.64509845 65.05628451 -169.96875 63.2578125 C-167.61574342 56.95638957 -165.67273349 50.63886789 -164 44.125 C-163.74653809 43.14845459 -163.49307617 42.17190918 -163.23193359 41.16577148 C-160.7004822 31.19467461 -158.77702291 21.1290306 -157 11 C-146.94650684 16.22464999 -137.26778757 21.81216916 -128.9375 29.5625 C-115.72156862 41.76668544 -102.83171278 44.92046447 -85.20703125 44.4140625 C-71.39225809 43.61284093 -59.77948034 36.68169432 -48.34912109 29.41821289 C-47.34099365 28.77807251 -47.34099365 28.77807251 -46.3125 28.125 C-45.29470459 27.47809204 -45.29470459 27.47809204 -44.25634766 26.81811523 C-37.72473991 22.72146259 -30.91808883 19.34101671 -23.9921875 15.97216797 C-10.81433002 9.6627419 -10.81433002 9.6627419 0 0 Z " fill="#FCFCFB" transform="translate(800,607)"/>
<path d="M0 0 C0.63164063 0.47179687 1.26328125 0.94359375 1.9140625 1.4296875 C3.07808594 2.29207031 3.07808594 2.29207031 4.265625 3.171875 C16.03636787 12.82898602 22.64589956 26.55967042 29.67724609 39.75366211 C45.40763542 69.16671125 63.27096547 97.69001649 83.34643555 124.34033203 C92.45877033 136.48473858 99.36742784 148.91699205 103.9140625 163.4296875 C104.2440625 164.4196875 104.5740625 165.4096875 104.9140625 166.4296875 C106.21459714 178.66750529 102.33653232 190.68769586 94.9140625 200.4296875 C89.84874556 206.00808611 83.8487578 209.58967204 76.9140625 212.4296875 C76.30626953 212.69080322 75.69847656 212.95191895 75.07226562 213.22094727 C68.21207765 215.8771401 61.57913787 215.93072396 54.2890625 215.8671875 C53.03577148 215.85671387 51.78248047 215.84624023 50.49121094 215.83544922 C41.32897009 215.65563399 33.47468542 214.85963968 24.9140625 211.4296875 C23.64876709 210.92985352 23.64876709 210.92985352 22.35791016 210.41992188 C15.15804999 207.5434554 8.03528191 204.4944469 0.9140625 201.4296875 C-25.87347842 189.95756911 -51.9500692 182.39406987 -80.9609375 178.8671875 C-93.56180783 177.30417278 -108.05908282 175.23344797 -116.4453125 164.7265625 C-120.09838732 158.77155012 -120.13450533 152.16656449 -119.0859375 145.4296875 C-117.64513033 140.50039006 -115.74716265 135.75981822 -113.8125 131.0078125 C-108.70761915 118.13977414 -109.60268306 106.32555239 -112.0859375 92.9921875 C-116.74243552 67.88679692 -116.74243552 67.88679692 -111.0859375 59.4296875 C-102.57579594 48.76612812 -88.09588735 45.36341172 -75.6484375 41.3046875 C-62.35099316 36.92475029 -51.97516658 31.56442631 -44.67675781 19.00463867 C-42.00433083 14.67896534 -38.35044301 11.32527119 -34.7734375 7.7421875 C-33.65291992 6.58493164 -33.65291992 6.58493164 -32.50976562 5.40429688 C-24.14707917 -3.00244236 -10.92045265 -6.73815164 0 0 Z " fill="#FABF0A" transform="translate(542.0859375,895.5703125)"/>
<path d="M0 0 C0.29390625 1.56234375 0.29390625 1.56234375 0.59375 3.15625 C2.21264378 11.13166882 4.28460782 18.45108197 7.9375 25.75 C8.26105469 26.40419922 8.58460938 27.05839844 8.91796875 27.73242188 C14.03139904 37.48243479 22.6247838 42.52476722 32.63671875 46.27734375 C43.33474167 49.54864001 55.5501661 44.91982817 65 40 C65.99902344 39.48695313 66.99804688 38.97390625 68.02734375 38.4453125 C75.27098461 34.73353952 75.27098461 34.73353952 80.40234375 28.640625 C82.18892327 25.6877454 84.24296521 23.30263466 86.5625 20.75 C87.74005859 19.44289063 87.74005859 19.44289063 88.94140625 18.109375 C92.23639926 14.73310132 94.43736625 14.79028075 99.0625 14.6875 C106.64071432 14.74611602 111.42085616 16.80370719 117.75 20.6875 C124.82268487 27.95664834 126.55023334 37.24410439 128.5625 46.875 C132.24283386 64.16978586 136.46043007 74.99276084 148.5 87.9375 C156.37760986 96.40979877 162.16231798 103.15245094 162.125 115.1875 C162.12757813 116.02667969 162.13015625 116.86585938 162.1328125 117.73046875 C162 120 162 120 161 123 C160.34 123 159.68 123 159 123 C159 123.99 159 124.98 159 126 C154.9020191 130.85686626 149.25872059 133.45028316 143.75 136.4375 C142.69296875 137.01371094 141.6359375 137.58992188 140.546875 138.18359375 C137.19253767 139.90139866 133.8103192 141.44667202 130.36035156 142.95776367 C126.37545454 144.71733395 122.43871381 146.57737333 118.5 148.4375 C117.31470703 148.99147461 117.31470703 148.99147461 116.10546875 149.55664062 C111.2201363 151.86338107 106.49970768 154.34805173 101.83007812 157.06665039 C100 158 100 158 98 158 C98 158.66 98 159.32 98 160 C97.33613281 160.30292969 96.67226563 160.60585937 95.98828125 160.91796875 C90.75618366 163.40035082 86.96727699 165.70211659 83 170 C81.00591923 171.34216975 79.00698975 172.6772113 77 174 C76.67 174.66 76.34 175.32 76 176 C74.66666667 176.66666667 73.33333333 177.33333333 72 178 C71.67 178.66 71.34 179.32 71 180 C70.34 180 69.68 180 69 180 C68.34 181.32 67.68 182.64 67 184 C66.34 184 65.68 184 65 184 C64.67 184.99 64.34 185.98 64 187 C62.46875 188.54296875 62.46875 188.54296875 60.5 190.1875 C56.53968292 193.53303861 52.70154669 196.99004337 48.8828125 200.49609375 C47 202 47 202 45 202 C45 202.66 45 203.32 45 204 C44.01 204 43.02 204 42 204 C42 204.66 42 205.32 42 206 C41.01 206 40.02 206 39 206 C39 206.66 39 207.32 39 208 C20.45784564 217.10894388 -0.61405544 221.81877767 -20.89453125 215.03125 C-23.15199787 213.86100461 -25.0175084 212.58923662 -27 211 C-27.76441406 210.4328125 -28.52882813 209.865625 -29.31640625 209.28125 C-38.04476223 202.26405442 -43.60479422 191.85673517 -45.35009766 180.77758789 C-47.02841919 160.96515393 -40.7545271 141.64604271 -34.91943359 122.95166016 C-31.1260265 110.7736751 -28.03661499 98.59349904 -26 86 C-25.81695313 84.89527344 -25.63390625 83.79054688 -25.4453125 82.65234375 C-24.17003041 74.10795374 -23.58274652 65.55257687 -23 56.9375 C-20.1037084 14.55944999 -20.1037084 14.55944999 -5.75 1.8125 C-3 0 -3 0 0 0 Z " fill="#FABF09" transform="translate(862,899)"/>
<path d="M0 0 C8.26690657 4.97288532 16.8274572 8.54894407 25.95507812 11.60839844 C26.97134277 11.95112793 27.98760742 12.29385742 29.03466797 12.64697266 C31.04547112 13.3178754 33.06128665 13.97399923 35.08251953 14.61279297 C42.33768644 17.00880096 48.56463254 20.03782498 53.18945312 26.30371094 C55.2766721 30.96925923 56.06902096 35.56979228 55.25195312 40.67871094 C51.84714639 48.68460786 48.29759287 53.3494807 40.25195312 56.67871094 C39.46457764 57.31196289 38.67720215 57.94521484 37.8659668 58.59765625 C35.25737749 60.67439252 32.8065413 62.04657262 29.80273438 63.47558594 C28.79017578 63.95898438 27.77761719 64.44238281 26.734375 64.94042969 C25.68830078 65.4315625 24.64222656 65.92269531 23.56445312 66.42871094 C22.50677734 66.9353125 21.44910156 67.44191406 20.359375 67.96386719 C12.52415873 71.67871094 12.52415873 71.67871094 10.25195312 71.67871094 C10.25195312 72.66871094 10.25195312 73.65871094 10.25195312 74.67871094 C8.39111328 76.14916992 8.39111328 76.14916992 5.79101562 77.67480469 C4.84355469 78.23361328 3.89609375 78.79242187 2.91992188 79.36816406 C1.41365234 80.23344727 1.41365234 80.23344727 -0.12304688 81.11621094 C-1.08855469 81.68919922 -2.0540625 82.2621875 -3.04882812 82.85253906 C-13.95689533 89.21435812 -23.36718585 92.84964451 -35.99804688 92.92871094 C-36.80628906 92.94933594 -37.61453125 92.96996094 -38.44726562 92.99121094 C-51.72374851 93.07618043 -61.62959988 86.696562 -71.30639648 78.19165039 C-76.64261827 73.58828711 -82.39345222 69.73819198 -88.30444336 65.91479492 C-105.97254801 54.48202674 -105.97254801 54.48202674 -110.12304688 45.80371094 C-111.38517193 39.49308565 -111.80580395 34.74588157 -108.37304688 29.05371094 C-103.43647033 22.40609615 -96.58197313 18.60062015 -89.37304688 14.80371094 C-82.9853345 11.42092241 -77.44776792 7.09599474 -71.74804688 2.67871094 C-46.70000805 -16.63501563 -26.45348618 -15.99265719 0 0 Z M-28.74804688 0.67871094 C-28.39783447 3.21775089 -27.90792814 4.49964392 -26.18554688 6.42871094 C-22.6080563 8.26332149 -19.74176344 7.87839677 -15.74804688 7.67871094 C-15.74804688 6.35871094 -15.74804688 5.03871094 -15.74804688 3.67871094 C-20.30230872 1.01280157 -23.48751651 0.36307912 -28.74804688 0.67871094 Z M30.18945312 36.55371094 C29.27341309 37.01692749 29.27341309 37.01692749 28.33886719 37.48950195 C24.08038626 39.66832163 19.90902742 41.98243534 15.74902344 44.34277344 C6.8003276 49.41408998 -2.2392326 53.9727763 -11.765625 57.86523438 C-13.48452991 58.57057811 -15.18820867 59.31281203 -16.88867188 60.06152344 C-24.2981242 62.89454933 -31.59307613 63.05238151 -39.43554688 63.11621094 C-41.0221814 63.13167969 -41.0221814 63.13167969 -42.64086914 63.14746094 C-62.97574742 62.91824587 -81.47023874 50.41747825 -96.84570312 37.98217773 C-98.77616792 36.39609388 -98.77616792 36.39609388 -101.74804688 36.67871094 C-101.73911445 39.00507773 -101.73911445 39.00507773 -100.74804688 41.67871094 C-98.62920862 43.61369552 -96.65292 45.18733131 -94.31054688 46.80371094 C-93.31812988 47.50669312 -93.31812988 47.50669312 -92.30566406 48.22387695 C-70.99991669 63.09877519 -51.83914734 72.28626377 -25.22460938 68.06542969 C-2.58485466 63.64887779 21.30467939 49.88588711 39.25195312 35.67871094 C39.25195312 35.01871094 39.25195312 34.35871094 39.25195312 33.67871094 C35.48662519 33.67871094 33.55013701 34.84781994 30.18945312 36.55371094 Z " fill="#F4BC0A" transform="translate(744.748046875,550.3212890625)"/>
<path d="M0 0 C11.44203827 8.51342133 18.8533259 19.82738211 21.34375 33.94921875 C21.65650881 36.29925369 21.841354 38.63441185 22 41 C22.13341797 42.52947266 22.13341797 42.52947266 22.26953125 44.08984375 C22.90568088 57.00516058 18.93794407 69.48889457 10.7109375 79.53125 C8.65907181 81.29266895 7.70998502 81.84199734 5 82 C1.765625 81.00390625 1.765625 81.00390625 -1.75 79.5625 C-2.92046875 79.08941406 -4.0909375 78.61632812 -5.296875 78.12890625 C-6.18890625 77.75636719 -7.0809375 77.38382813 -8 77 C-7.61328125 76.48953125 -7.2265625 75.9790625 -6.828125 75.453125 C0.26218884 65.55476607 3.50085079 55.20589876 2 43 C0.3826287 36.41239216 -2.4206731 31.00926506 -8 27 C-12.97870505 24.51064748 -18.54136882 24.05653288 -24 25 C-30.31501407 27.94123943 -33.62905354 32.61487687 -36 39 C-36.35964844 39.93714844 -36.71929688 40.87429688 -37.08984375 41.83984375 C-38.06847875 45.23776527 -38.2333198 48.03437522 -38.1875 51.5625 C-38.18105469 52.65691406 -38.17460938 53.75132812 -38.16796875 54.87890625 C-38.01649324 57.69353265 -37.63784164 60.2598323 -37 63 C-37.71285156 62.67386719 -38.42570313 62.34773437 -39.16015625 62.01171875 C-40.11792969 61.57472656 -41.07570313 61.13773438 -42.0625 60.6875 C-43.06152344 60.22988281 -44.06054688 59.77226563 -45.08984375 59.30078125 C-47.41829609 58.26000994 -49.7506036 57.30195642 -52.125 56.375 C-53.07375 55.92125 -54.0225 55.4675 -55 55 C-58.5598761 44.32037169 -56.52345707 30.0238738 -52 20 C-46.80861827 9.81897418 -39.342071 1.97214952 -29 -3 C-19.35338236 -5.44051181 -8.61167965 -5.26898821 0 0 Z " fill="#F9FAFA" transform="translate(780,477)"/>
<path d="M0 0 C2.06288256 0.96158271 3.84679305 2.04627058 5.7109375 3.3515625 C6.37738281 3.80273438 7.04382813 4.25390625 7.73046875 4.71875 C16.35108612 11.34492243 21.24574623 21.71905395 22.7109375 32.3515625 C22.92320533 36.21171737 22.90243194 40.04971243 22.8359375 43.9140625 C22.82691406 44.92275391 22.81789063 45.93144531 22.80859375 46.97070312 C22.78527106 49.43124707 22.75254513 51.89127146 22.7109375 54.3515625 C22.10765625 54.61710938 21.504375 54.88265625 20.8828125 55.15625 C19.68398438 55.68605469 19.68398438 55.68605469 18.4609375 56.2265625 C17.67203125 56.57460938 16.883125 56.92265625 16.0703125 57.28125 C13.92225142 58.25570155 11.81264548 59.28142679 9.7109375 60.3515625 C9.65486328 58.54171875 9.65486328 58.54171875 9.59765625 56.6953125 C9.53194531 55.08070072 9.46549979 53.46611872 9.3984375 51.8515625 C9.37587891 51.06007813 9.35332031 50.26859375 9.33007812 49.453125 C8.95140443 41.05345388 6.74307944 34.38370444 0.7109375 28.3515625 C-3.24000053 26.06417732 -6.78210076 25.80761884 -11.2890625 26.3515625 C-15.60719016 28.21641428 -18.48851462 31.05046746 -20.7265625 35.1640625 C-24.055019 43.8469925 -23.57354401 54.17527393 -20.1640625 62.7265625 C-17.57412789 68.14390424 -14.53807868 73.30498066 -11.2890625 78.3515625 C-12.67912765 78.88760069 -14.07648899 79.40473723 -15.4765625 79.9140625 C-16.25386719 80.20410156 -17.03117188 80.49414062 -17.83203125 80.79296875 C-20.88326162 81.48665069 -22.3770528 81.55988449 -25.2890625 80.3515625 C-26.93759749 78.03878265 -28.16665597 75.99109741 -29.4140625 73.4765625 C-29.74792969 72.8578125 -30.08179688 72.2390625 -30.42578125 71.6015625 C-35.34207029 62.07745746 -36.83031063 52.61033743 -36.7265625 41.9765625 C-36.71826416 40.87820068 -36.70996582 39.77983887 -36.70141602 38.64819336 C-36.44323166 26.25626292 -33.97874824 15.71748838 -25.2890625 6.3515625 C-17.51109917 0.10369032 -10.04859648 -2.84653074 0 0 Z " fill="#F8F9F9" transform="translate(668.2890625,478.6484375)"/>
<path d="M0 0 C-1.18560091 3.55680272 -1.95031477 3.88222917 -5.05859375 5.78515625 C-5.91050293 6.31101318 -6.76241211 6.83687012 -7.64013672 7.37866211 C-9.02483154 8.21216187 -9.02483154 8.21216187 -10.4375 9.0625 C-11.38383301 9.63814697 -12.33016602 10.21379395 -13.30517578 10.80688477 C-38.92462911 26.29218279 -65.38233353 40.6307822 -96.4375 33.9375 C-109.02207182 30.07490865 -119.71373757 22.84044761 -130.28076172 15.22900391 C-131.75537816 14.17486884 -133.25260682 13.15249156 -134.75390625 12.13671875 C-139.76872247 8.66492291 -139.76872247 8.66492291 -141 5.125 C-141 4.42375 -141 3.7225 -141 3 C-137.5538313 3.63601144 -135.24825654 4.9815099 -132.3671875 6.94921875 C-131.47773437 7.55056641 -130.58828125 8.15191406 -129.671875 8.77148438 C-128.74890625 9.40376953 -127.8259375 10.03605469 -126.875 10.6875 C-106.4240457 24.61934638 -88.87344747 32.8743581 -63.42285156 28.56347656 C-58.04833684 27.27693938 -53.03516284 25.25007491 -48 23 C-47.17048828 22.63551758 -46.34097656 22.27103516 -45.48632812 21.89550781 C-34.26292124 16.90130036 -23.45258257 11.2109464 -12.78515625 5.12890625 C-3.72174658 0 -3.72174658 0 0 0 Z " fill="#271400" transform="translate(784,584)"/>
<path d="M0 0 C-0.74983154 0.35191406 -1.49966309 0.70382812 -2.2722168 1.06640625 C-21.7005269 10.00863078 -21.7005269 10.00863078 -40 21 C-40.9075 21.61875 -41.815 22.2375 -42.75 22.875 C-52.87157216 30.00610766 -62.44511469 38.04721305 -71 47 C-71.99 46.67 -72.98 46.34 -74 46 C-73.43410156 45.51789063 -72.86820313 45.03578125 -72.28515625 44.5390625 C-71.55167969 43.90742187 -70.81820312 43.27578125 -70.0625 42.625 C-69.33160156 41.99851562 -68.60070312 41.37203125 -67.84765625 40.7265625 C-65.91619094 39.12252286 -65.91619094 39.12252286 -65 37 C-64.34 37 -63.68 37 -63 37 C-62.34 35.68 -61.68 34.36 -61 33 C-60.01 33 -59.02 33 -58 33 C-57.814375 32.443125 -57.62875 31.88625 -57.4375 31.3125 C-55.35889174 27.96865193 -52.39186398 25.95192172 -49 24 C-48.34 24 -47.68 24 -47 24 C-46.67 23.01 -46.34 22.02 -46 21 C-44.4765625 19.83203125 -44.4765625 19.83203125 -42.625 18.8125 C-42.01914062 18.46832031 -41.41328125 18.12414063 -40.7890625 17.76953125 C-39 17 -39 17 -36 17 C-36 16.34 -36 15.68 -36 15 C-28.0260424 10.63579613 -19.99275338 6.40368346 -11.8125 2.4375 C-10.73560913 1.89996094 -10.73560913 1.89996094 -9.63696289 1.3515625 C-5.945903 -0.4095515 -3.9015188 -1.2865627 0 0 Z " fill="#E3B73E" transform="translate(996,1042)"/>
<path d="M0 0 C3.125 0.4375 3.125 0.4375 5.5 2.5 C7.510629 6.13459858 7.65610151 8.3404312 7.125 12.4375 C5.9375 14.375 5.9375 14.375 4.125 15.4375 C1.6875 15.9375 1.6875 15.9375 -0.875 15.4375 C-3.34647716 13.30000624 -4.68315637 11.67619404 -5.19140625 8.39453125 C-5.25 6.25 -5.25 6.25 -4.875 2.4375 C-2.875 0.4375 -2.875 0.4375 0 0 Z " fill="#F0F1F1" transform="translate(769.875,507.5625)"/>
<path d="M0 0 C0.99 0.33 1.98 0.66 3 1 C-10.62859824 15.95821758 -29.64849138 28.00713948 -50.18408203 29.11816406 C-52.54022599 29.19652036 -54.89263313 29.23397175 -57.25 29.25 C-57.99403076 29.25918457 -58.73806152 29.26836914 -59.50463867 29.27783203 C-64.63251697 29.24935964 -69.06787318 28.4059909 -74 27 C-74 26.67 -74 26.34 -74 26 C-68.8234151 25.91226127 -63.83934775 26.09740113 -58.6875 26.625 C-45.80090313 27.65892463 -33.35464329 23.97612805 -22 18 C-21.34 18 -20.68 18 -20 18 C-20 17.34 -20 16.68 -20 16 C-19.01 16 -18.02 16 -17 16 C-17 15.34 -17 14.68 -17 14 C-16.01 14 -15.02 14 -14 14 C-14 13.34 -14 12.68 -14 12 C-12.20703125 10.44921875 -12.20703125 10.44921875 -9.8125 8.6875 C-6.23666547 5.99152381 -3.06234786 3.25991869 0 0 Z " fill="#D9AE3C" transform="translate(921,1089)"/>
<path d="M0 0 C2.95788172 3.27765271 3.93422725 5.34227248 4.375 9.75 C4 13 4 13 2 15 C-1.4375 14.9375 -1.4375 14.9375 -5 14 C-7.41998348 11.26776059 -7.94144259 9.48797841 -8.375 5.875 C-8 3 -8 3 -6.8125 1.125 C-4.24350669 -0.46954757 -2.96612328 -0.65110023 0 0 Z " fill="#F0F0F0" transform="translate(670,510)"/>
<path d="M0 0 C0 0.33 0 0.66 0 1 C-0.64066406 1.03738281 -1.28132812 1.07476563 -1.94140625 1.11328125 C-3.23884766 1.21189453 -3.23884766 1.21189453 -4.5625 1.3125 C-5.83287109 1.39951172 -5.83287109 1.39951172 -7.12890625 1.48828125 C-15.5364124 2.98676194 -19.96569746 7.39889686 -25.75 13.375 C-26.50410156 14.13039063 -27.25820313 14.88578125 -28.03515625 15.6640625 C-31.59354556 19.27933547 -34.43311307 22.61055736 -37 27 C-38.70118663 29.18562624 -40.56780221 31.2075992 -42.4375 33.25 C-42.91509766 33.79140625 -43.39269531 34.3328125 -43.88476562 34.890625 C-48.24984728 39.68083807 -48.24984728 39.68083807 -52 40 C-51.27296875 39.28972656 -50.5459375 38.57945312 -49.796875 37.84765625 C-47.13466562 35.13711066 -44.68035889 32.35631338 -42.25 29.4375 C-41.81953369 28.92155273 -41.38906738 28.40560547 -40.94555664 27.87402344 C-37.96329532 24.26492435 -35.18320536 20.54397816 -32.4375 16.75 C-23.2128651 4.31467062 -15.51668682 -0.62158834 0 0 Z " fill="#DDB037" transform="translate(532,892)"/>
<path d="M0 0 C2.61873642 2.61873642 2.94757805 4.47578053 3.3125 8.125 C2.77923635 14.73746925 0.51734769 19.94310319 -4.3125 24.5625 C-8.19811911 27.69012902 -12.44948643 30.11044477 -16.8125 32.5 C-17.80020386 33.04442749 -17.80020386 33.04442749 -18.80786133 33.59985352 C-20.49719389 34.48393538 -22.2465137 35.25118023 -24 36 C-24.99 35.67 -25.98 35.34 -27 35 C-22.34754595 31.98085429 -17.69001281 29.24731675 -12.6640625 26.89453125 C-10.80743657 25.99944889 -10.80743657 25.99944889 -9 24 C-8.01 24 -7.02 24 -6 24 C-5.34 22.68 -4.68 21.36 -4 20 C-3.34 20 -2.68 20 -2 20 C-2 19.01 -2 18.02 -2 17 C-1.34 17 -0.68 17 0 17 C0 11.39 0 5.78 0 0 Z " fill="#D8AF3C" transform="translate(1023,1005)"/>
<path d="M0 0 C0 0.99 0 1.98 0 3 C-10.82964717 13.46865893 -26.2434379 18.74977849 -41.0625 19.25 C-44 19 -44 19 -47 17 C-45.78376953 16.94392578 -45.78376953 16.94392578 -44.54296875 16.88671875 C-27.52688642 15.87645077 -13.38588814 10.61911992 0 0 Z " fill="#DFB13D" transform="translate(941,928)"/>
<path d="M0 0 C6.11774896 -0.49940808 9.02495953 0.75099398 14 4 C13.67 4.99 13.34 5.98 13 7 C5.80714661 7.48765108 5.80714661 7.48765108 2 5.1875 C0 3 0 3 0 0 Z " fill="#1F0E01" transform="translate(716,551)"/>
<path d="M0 0 C0.99 0.33 1.98 0.66 3 1 C-4.13855765 6.3289931 -11.50428698 10.53273083 -19.5 14.4375 C-20.5828125 14.97826172 -21.665625 15.51902344 -22.78125 16.07617188 C-30.7181969 20 -30.7181969 20 -33 20 C-33 19.34 -33 18.68 -33 18 C-31.90042969 17.49210938 -30.80085937 16.98421875 -29.66796875 16.4609375 C-15.17707627 10.11512912 -15.17707627 10.11512912 -2 1.5625 C-1.34 1.046875 -0.68 0.53125 0 0 Z " fill="#D9AF36" transform="translate(788,604)"/>
</svg>
